<svg xmlns="http://www.w3.org/2000/svg" width="256" height="256" viewBox="0 0 256 256">
  <defs>
    <linearGradient id="bg" x1="12%" y1="88%" x2="88%" y2="12%">
      <stop offset="0" stop-color="#00ffd1"/>
      <stop offset="1" stop-color="#0ea5ff"/>
    </linearGradient>
    <linearGradient id="stroke" x1="0%" y1="0%" x2="100%" y2="100%">
      <stop offset="0" stop-color="#e8f9ff"/>
      <stop offset="1" stop-color="#8defff"/>
    </linearGradient>
    <radialGradient id="flare" cx="50%" cy="0%" r="80%">
      <stop offset="0" stop-color="rgba(255,255,255,0.74)"/>
      <stop offset="1" stop-color="rgba(255,255,255,0)"/>
    </radialGradient>
    <filter id="glow" x="-40%" y="-40%" width="180%" height="180%" color-interpolation-filters="sRGB">
      <feGaussianBlur stdDeviation="16" result="shadow"/>
      <feMerge>
        <feMergeNode in="shadow"/>
        <feMergeNode in="SourceGraphic"/>
      </feMerge>
    </filter>
  </defs>
  <rect x="20" y="20" width="216" height="216" rx="56" fill="url(#bg)"/>
  <rect x="30" y="30" width="196" height="196" rx="50" fill="#09121d" opacity="0.42"/>
  <path d="M220 90c-42 22-112 20-152 12S36 78 36 78c0-27.614 22.386-50 50-50h84c27.614 0 50 22.386 50 50z" fill="url(#flare)" opacity="0.55"/>
  <g filter="url(#glow)">
    <path d="M92 72c0-15.464 12.536-28 28-28h60c11.046 0 20 8.954 20 20s-8.954 20-20 20h-60v24h50c10.493 0 19 8.507 19 19 0 6.642-3.541 12.816-9.284 16.141l-21.716 12.359H180c11.046 0 20 8.954 20 20s-8.954 20-20 20h-60v18c0 15.464-12.536 28-28 28h-18c-11.046 0-20-8.954-20-20V72z" fill="#02141e" opacity="0.88"/>
    <path d="M98 78c0-12.15 9.85-22 22-22h54c7.732 0 14 6.268 14 14s-6.268 14-14 14h-64v36h53c7.732 0 14 6.268 14 14 0 5.151-2.751 9.909-7.224 12.545l-48.776 29.455H174c7.732 0 14 6.268 14 14s-6.268 14-14 14h-54v12c0 12.15-9.85 22-22 22h-12c-7.732 0-14-6.268-14-14V78z" fill="url(#stroke)"/>
    <path d="M116 134h34c5.799 0 8.94 6.681 5.172 11.221l-38.172 46.779h-9v-58z" fill="#00ffd1" opacity="0.9"/>
  </g>
  <circle cx="188" cy="78" r="12" fill="#021c2b" opacity="0.65"/>
  <circle cx="188" cy="78" r="6" fill="#00ffd1"/>
  <circle cx="72" cy="188" r="6" fill="#0ea5ff" opacity="0.8"/>
  <path d="M69 108c8 12 24 20 43 20" stroke="rgba(0,255,209,0.45)" stroke-width="6" stroke-linecap="round" stroke-dasharray="18 14"/>
</svg>
