<?xml version="1.0" encoding="UTF-8"?>
<svg width="256" height="256" viewBox="0 0 256 256" xmlns="http://www.w3.org/2000/svg">
  <defs>
    <linearGradient id="bg-gradient" x1="0%" y1="0%" x2="100%" y2="100%">
      <stop offset="0%" stop-color="#0D0D0F"/>
      <stop offset="50%" stop-color="#11131A"/>
      <stop offset="100%" stop-color="#1A1D27"/>
    </linearGradient>
    <linearGradient id="accent-glow" x1="20%" y1="10%" x2="80%" y2="90%">
      <stop offset="0%" stop-color="#00FFD1" stop-opacity="0.15"/>
      <stop offset="100%" stop-color="#007AFF" stop-opacity="0"/>
    </linearGradient>
    <filter id="soft-glow" x="-20%" y="-20%" width="140%" height="140%">
      <feGaussianBlur stdDeviation="14" result="blur"/>
      <feComposite in="blur" in2="SourceGraphic" operator="over"/>
    </filter>
  </defs>
  <rect width="256" height="256" rx="48" fill="url(#bg-gradient)"/>
  <rect width="256" height="256" rx="48" fill="url(#accent-glow)"/>
  <g filter="url(#soft-glow)">
    <path fill="#00FFD1" fill-opacity="0.25" d="M48 64c0-8.837 7.163-16 16-16h96c35.346 0 64 28.654 64 64s-28.654 64-64 64H64c-8.837 0-16-7.163-16-16V64Z"/>
  </g>
  <path fill="#F5F7FA" d="M84 68h92a12 12 0 0 1 0 24H100v28h64a12 12 0 0 1 0 24h-64v28h78a12 12 0 0 1 0 24H84a12 12 0 0 1-12-12V80a12 12 0 0 1 12-12Z"/>
  <path fill="#00FFD1" d="M100 92h68a8 8 0 0 0 0-16h-68v16Zm0 52h52a8 8 0 0 0 0-16h-52v16Z" opacity="0.75"/>
  <circle cx="188" cy="84" r="10" fill="#00FFD1" opacity="0.9"/>
</svg>
