<svg width="120" height="120" viewBox="0 0 120 120" fill="none" xmlns="http://www.w3.org/2000/svg">
  <defs>
    <linearGradient id="faceGlow" x1="60" y1="12" x2="60" y2="108" gradientUnits="userSpaceOnUse">
      <stop offset="0%" stop-color="#8A9BFF"/>
      <stop offset="100%" stop-color="#71E5BF"/>
    </linearGradient>
    <linearGradient id="haloGradient" x1="60" y1="2" x2="60" y2="50" gradientUnits="userSpaceOnUse">
      <stop offset="0%" stop-color="#B8C5FF" stop-opacity="0.9"/>
      <stop offset="100%" stop-color="#B8C5FF" stop-opacity="0"/>
    </linearGradient>
    <filter id="softBlur" x="-20%" y="-20%" width="140%" height="140%">
      <feGaussianBlur stdDeviation="8" result="blur"/>
      <feMerge>
        <feMergeNode in="blur"/>
        <feMergeNode in="SourceGraphic"/>
      </feMerge>
    </filter>
  </defs>
  <circle cx="60" cy="60" r="52" fill="url(#faceGlow)" opacity="0.95"/>
  <ellipse cx="60" cy="28" rx="38" ry="16" fill="url(#haloGradient)" filter="url(#softBlur)"/>
  <path d="M36 72C45 84 55.5 90 60 90C64.5 90 75 84 84 72C84 94 73 108 60 108C47 108 36 94 36 72Z" fill="#101424" opacity="0.65"/>
  <path d="M42 47C42 39.268 48.268 33 56 33H64C71.732 33 78 39.268 78 47V59C78 66.732 71.732 73 64 73H56C48.268 73 42 66.732 42 59V47Z" fill="#0D1327" opacity="0.6"/>
  <circle cx="50" cy="50" r="6" fill="#FDFEFE"/>
  <circle cx="50" cy="50" r="2" fill="#5367FF"/>
  <circle cx="70" cy="50" r="6" fill="#FDFEFE"/>
  <circle cx="70" cy="50" r="2" fill="#5367FF"/>
  <path d="M48 62C51 66 56 69 60 69C64 69 69 66 72 62" stroke="#B8C5FF" stroke-width="3" stroke-linecap="round"/>
  <path d="M46 40C48.5 37.5 54 35.5 60 35.5" stroke="#EEF3FF" stroke-width="3" stroke-linecap="round" opacity="0.8"/>
  <path d="M74 40C71.5 37.5 66 35.5 60 35.5" stroke="#EEF3FF" stroke-width="3" stroke-linecap="round" opacity="0.8"/>
  <circle cx="32" cy="56" r="7" fill="#9BE8D6" opacity="0.45"/>
  <circle cx="88" cy="56" r="7" fill="#9BE8D6" opacity="0.45"/>
  <circle cx="40" cy="82" r="5" fill="#9BE8D6" opacity="0.35"/>
  <circle cx="80" cy="82" r="5" fill="#8EA2FF" opacity="0.32"/>
  <circle cx="47" cy="23" r="4" fill="#F2F6FF" opacity="0.6"/>
  <circle cx="73" cy="23" r="4" fill="#F2F6FF" opacity="0.6"/>
  <circle cx="60" cy="12" r="6" fill="#F9FBFF" opacity="0.45"/>
</svg>
